General
Complete name                    : Raging_Bull.mkv
Format                           : Matroska
File size                        : 702 MiB
Duration                         : 2h 3mn
Overall bit rate                 : 794 Kbps


Video
ID                               : 1
Format                           : AVC

Duration                         : 2h 3mn
Bit rate                         : 618 Kbps
Nominal bit rate                 : 627 Kbps
Width                            : 544 pixels
Height                           : 288 pixels
Display aspect ratio             : 1.889
Frame rate                       : 24.983 fps
Resolution                       : 8 bits
Colorimetry                      : 4:2:0
Scan type                        : Progressive
Bits/(Pixel*Frame)               : 0.158
Stream size                      : 547 MiB (78%)
Writing library                  : x264 core 79


Audio
ID                               : 2
Format                           : MPEG Audio
Format version                   : Version 1
Format profile                   : Layer 3
Mode                             : Joint stereo / MS Stereo
Codec ID                         : A_MPEG/L3
Codec ID/Hint                    : MP3
Duration                         : 2h 3mn
Bit rate mode                    : Constant
Bit rate                         : 160 Kbps
Channel(s)                       : 2 channels
Sampling rate                    : 48.0 KHz
Stream size                      : 142 MiB (20%)
Writing library                  : LAME3.98

Text #1

Language                         : Danish

Text #2
Language                         : Dutch

Text #3
Language                         : English

Text #4
Language                         : French

Text #5
Language                         : German

Text #6
Language                         : Hungarian

Text #7
Language                         : Italian

Text #8
Language                         : Norwegian

Text #9
Language                         : Polish

Text #10
Language                         : Portuguese

Text #11
Language                         : Spanish

Text #12
Language                         : Swedish

